<svg xmlns="http://www.w3.org/2000/svg" viewBox="0 0 64 64" role="img" aria-label="FB monogram">
  <defs>
    <linearGradient id="g" x1="0%" y1="0%" x2="100%" y2="100%">
      <stop offset="0%" stop-color="#345059" />
      <stop offset="100%" stop-color="#cbaf94" />
    </linearGradient>
  </defs>
  <rect width="64" height="64" rx="18" fill="#0b1213" />
  <rect x="6" y="6" width="52" height="52" rx="15" fill="none" stroke="url(#g)" stroke-width="1.5" opacity="0.6" />
  <path
    d="M20 45V19h18v4H25v7h11v4H25v11h-5Zm24.2.4c-2.27 0-4.2-.4-5.8-1.22-1.57-.82-2.77-1.97-3.6-3.46-.8-1.48-1.2-3.22-1.2-5.2 0-2.01.39-3.77 1.18-5.26.82-1.5 1.98-2.67 3.5-3.5 1.54-.84 3.37-1.26 5.48-1.26 2.04 0 3.75.41 5.14 1.22 1.42.82 2.49 1.98 3.2 3.48.74 1.48 1.11 3.22 1.11 5.22v1.68H38.47c.1 1.6.67 2.85 1.7 3.74 1.04.88 2.42 1.32 4.16 1.32 1.94 0 3.77-.52 5.49-1.56v4.08c-1.57.94-3.45 1.42-5.62 1.42Zm4.18-12.92c-.04-1.4-.45-2.52-1.24-3.34-.78-.84-1.9-1.26-3.34-1.26-1.45 0-2.63.42-3.54 1.26-.88.82-1.43 1.94-1.64 3.34h9.76Z"
    fill="#f3eee2"
  />
</svg>
